<svg xmlns="http://www.w3.org/2000/svg" viewBox="0 0 512 512">
  <defs>
    <linearGradient id="bg" x1="0%" y1="0%" x2="100%" y2="100%">
      <stop offset="0%" style="stop-color:#1a1a2e"/>
      <stop offset="100%" style="stop-color:#16213e"/>
    </linearGradient>
    <linearGradient id="chart" x1="0%" y1="100%" x2="100%" y2="0%">
      <stop offset="0%" style="stop-color:#00d9ff"/>
      <stop offset="50%" style="stop-color:#00ff88"/>
      <stop offset="100%" style="stop-color:#00ff88"/>
    </linearGradient>
    <linearGradient id="ai" x1="0%" y1="0%" x2="100%" y2="100%">
      <stop offset="0%" style="stop-color:#8b5cf6"/>
      <stop offset="100%" style="stop-color:#06b6d4"/>
    </linearGradient>
  </defs>
  
  <!-- Background -->
  <rect width="512" height="512" rx="96" fill="url(#bg)"/>
  
  <!-- Candlestick chart pattern -->
  <g stroke="url(#chart)" stroke-width="12" stroke-linecap="round">
    <!-- Candle 1 - Red -->
    <line x1="100" y1="280" x2="100" y2="360" stroke="#ef4444"/>
    <rect x="85" y="300" width="30" height="40" fill="#ef4444" rx="4"/>
    
    <!-- Candle 2 - Green -->
    <line x1="170" y1="200" x2="170" y2="320"/>
    <rect x="155" y="220" width="30" height="60" fill="url(#chart)" rx="4"/>
    
    <!-- Candle 3 - Green -->
    <line x1="240" y1="160" x2="240" y2="280"/>
    <rect x="225" y="180" width="30" height="70" fill="url(#chart)" rx="4"/>
    
    <!-- Candle 4 - Red -->
    <line x1="310" y1="180" x2="310" y2="300" stroke="#ef4444"/>
    <rect x="295" y="200" width="30" height="60" fill="#ef4444" rx="4"/>
    
    <!-- Candle 5 - Green (highest) -->
    <line x1="380" y1="100" x2="380" y2="240"/>
    <rect x="365" y="120" width="30" height="80" fill="url(#chart)" rx="4"/>
  </g>
  
  <!-- AI Brain/Circuit pattern -->
  <g fill="url(#ai)" opacity="0.9">
    <!-- Central node -->
    <circle cx="420" cy="380" r="45" fill="url(#ai)"/>
    <circle cx="420" cy="380" r="28" fill="#1a1a2e"/>
    <circle cx="420" cy="380" r="16" fill="url(#ai)"/>
    
    <!-- Connection lines -->
    <path d="M390 355 L340 320" stroke="url(#ai)" stroke-width="6" stroke-linecap="round" fill="none" opacity="0.6"/>
    <path d="M395 405 L350 430" stroke="url(#ai)" stroke-width="6" stroke-linecap="round" fill="none" opacity="0.6"/>
    <path d="M450 400 L480 430" stroke="url(#ai)" stroke-width="6" stroke-linecap="round" fill="none" opacity="0.4"/>
    
    <!-- Small nodes -->
    <circle cx="340" cy="320" r="12" opacity="0.7"/>
    <circle cx="350" cy="430" r="10" opacity="0.6"/>
    <circle cx="480" cy="430" r="8" opacity="0.4"/>
  </g>
  
  <!-- Trend line overlay -->
  <path d="M80 350 Q150 280 200 260 T320 200 T420 140" 
        stroke="url(#chart)" stroke-width="4" fill="none" 
        stroke-linecap="round" opacity="0.5"/>
</svg>
